<svg width="11" height="11" viewBox="0 0 11 11" fill="none" xmlns="http://www.w3.org/2000/svg">
<path d="M5.75 0.0135498C2.98796 0.0135498 0.75 2.25151 0.75 5.01355C0.75 7.77559 2.98796 10.0135 5.75 10.0135C8.51204 10.0135 10.75 7.77559 10.75 5.01355C10.75 2.25151 8.51204 0.0135498 5.75 0.0135498ZM5.75 0.846883C8.05143 0.846883 9.91667 2.71212 9.91667 5.01355C9.91667 7.31498 8.05143 9.18022 5.75 9.18022C3.44857 9.18022 1.58333 7.31498 1.58333 5.01355C1.58333 2.71212 3.44857 0.846883 5.75 0.846883ZM5.30729 1.62813L5.125 5.03959L5.16406 5.40417L7.72917 7.6698L8.13281 7.25313L6.01042 5.00053L5.82812 1.62813H5.30729Z" fill="#999999"/>
</svg>
