<svg width="25" height="25" viewBox="0 0 25 25" fill="none" xmlns="http://www.w3.org/2000/svg">
<g clip-path="url(#clip0_4_9423)">
<path d="M18.9994 6.074C18.9994 9.41568 16.2906 12.1245 12.9489 12.1245C9.6072 12.1245 6.89832 9.41568 6.89832 6.074C6.89832 2.73232 9.6072 0.0234375 12.9489 0.0234375C16.2906 0.0234375 18.9994 2.73232 18.9994 6.074Z" fill="white"/>
<path d="M8.89352 13.4531C8.89352 13.4531 8.63635 13.3826 8.20898 13.3826C8.57787 13.3946 8.88752 13.4531 8.89352 13.4531Z" fill="white"/>
<path d="M20.0642 14.1205C19.3564 13.6871 18.7004 13.4944 18.162 13.424C18.162 13.424 19.0108 14.6176 19.1217 15.5308C19.8243 15.7535 20.3334 16.4087 20.3334 17.1809C20.3334 18.1346 19.5611 18.9069 18.6074 18.9069C17.6537 18.9069 16.8815 18.1346 16.8815 17.1809C16.8815 16.3269 17.5015 15.6244 18.309 15.4782C18.186 15.1093 17.7294 13.8693 16.9752 13.436C16.9167 13.448 16.8815 13.4592 16.8815 13.4592L12.8905 17.0521L8.89951 13.4592C7.30177 13.9915 7.43673 15.8524 7.43673 15.8524C7.87009 16.0864 8.22098 16.3847 8.49614 16.7011C9.20392 17.5026 9.56155 18.5447 9.56155 19.6154V20.3292C9.56155 21.2364 8.82454 21.9735 7.91733 21.9735C7.57769 21.9735 7.29728 21.6983 7.29728 21.3534C7.29728 21.0318 7.55444 20.7739 7.87684 20.7739H8.3042C8.40917 20.7739 8.49764 20.686 8.49764 20.5803V19.7317C8.49764 19.0644 8.29895 18.409 7.90083 17.8767C7.38575 17.1862 6.8999 17.1862 6.8999 17.1862C6.45529 17.2386 6.10441 17.5956 5.84649 17.9938C5.47761 18.5553 5.30216 19.2165 5.30216 19.8898V20.5864C5.30216 20.6914 5.38989 20.7798 5.4956 20.7798H6.09841C6.39082 20.7798 6.63074 21.0198 6.63074 21.3122C6.63074 21.6811 6.33233 21.9794 5.96345 21.9794C5.15596 21.9794 4.50067 21.3242 4.50067 20.5167V18.919C4.63488 16.7889 6.49578 15.8583 6.49578 15.8583C6.75895 13.8632 7.47272 13.4531 7.47272 13.4531C6.96363 13.5408 6.34883 13.7343 5.69954 14.1316C3.97359 15.1971 1.84352 17.9878 2.24089 20.779C2.63827 23.5704 3.44051 24.2378 12.8792 23.9686C22.324 24.2318 23.1202 23.5704 23.5176 20.779C23.915 17.9878 21.7916 15.1851 20.0649 14.1196L20.0642 14.1205ZM17.3725 20.8264C17.3725 21.0078 17.2263 21.1599 17.0389 21.1599H16.1842V22.0146C16.1842 22.1961 16.038 22.3483 15.8505 22.3483H15.1308C14.9493 22.3483 14.7971 22.2021 14.7971 22.0146V21.1606H13.9431C13.7617 21.1606 13.6095 21.0145 13.6095 20.8271V20.1072C13.6095 19.9258 13.7557 19.7737 13.9431 19.7737H14.7971V18.9197C14.7971 18.7383 14.9433 18.586 15.1308 18.586H15.8505C16.032 18.586 16.1842 18.7323 16.1842 18.9197V19.7737H17.0382C17.2196 19.7737 17.3718 19.9198 17.3718 20.1072L17.3725 20.8264Z" fill="white"/>
<path d="M19.3976 17.1809C19.3976 17.6203 19.0415 17.9764 18.6021 17.9764C18.1628 17.9764 17.8066 17.6203 17.8066 17.1809C17.8066 16.7416 18.1628 16.3854 18.6021 16.3854C19.0415 16.3854 19.3976 16.7416 19.3976 17.1809Z" fill="white"/>
</g>
<defs>
<clipPath id="clip0_4_9423">
<rect width="24" height="24" fill="white" transform="translate(0.75 0.0234375)"/>
</clipPath>
</defs>
</svg>
