<svg width="9" height="14" viewBox="0 0 9 14" fill="none" xmlns="http://www.w3.org/2000/svg">
<path d="M7.28832 12.5835C7.28832 13.0499 6.15537 13.4285 4.75612 13.4285C3.35687 13.4285 2.22391 13.0499 2.22391 12.5835C2.22391 12.2298 2.86879 11.9294 3.78599 11.8011L4.23356 12.5398C4.45573 12.9059 4.99113 12.9027 5.20689 12.5306C5.33201 12.3176 5.47599 12.0673 5.63882 11.7886C6.6029 11.9105 7.28832 12.2206 7.28832 12.5835ZM6.80025 1.19624C6.34945 0.945986 5.87383 0.764313 5.37613 0.670472C4.22754 0.448291 3.03483 0.723806 2.09558 1.41842C0.997117 2.23214 0.655832 3.406 0.614923 4.44831C0.571209 5.56883 0.874798 6.67372 1.45671 7.63179L4.37713 12.4396C4.53995 12.7087 4.93097 12.7055 5.08778 12.4331C5.72023 11.3471 7.0974 9.00257 8.26488 7.12447C9.50125 5.13691 8.91296 2.3697 6.79984 1.19624H6.80025ZM4.74047 2.38534C5.4415 2.38534 6.0082 2.95202 6.0082 3.65304C6.0082 4.35407 5.4415 4.92074 4.74047 4.92074C4.03945 4.92074 3.47277 4.35086 3.47277 3.64984C3.47277 2.95202 4.03945 2.38534 4.74047 2.38534ZM6.93459 7.22474C6.93459 7.34987 6.90011 7.47499 6.8311 7.58168L5.36009 9.89168C5.10342 10.2955 4.5183 10.3016 4.252 9.90411L2.72121 7.62858C2.64902 7.51909 2.60852 7.39076 2.60852 7.25922V5.88202C2.60852 5.5159 2.90569 5.22153 3.26904 5.22153H6.27087C6.63703 5.22153 6.93138 5.5187 6.93138 5.88202V7.22474H6.93459Z" fill="#555555"/>
</svg>
