<svg width="17" height="26" viewBox="0 0 17 26" fill="none" xmlns="http://www.w3.org/2000/svg">
<path d="M8.49494 0.133591C5.95871 0.133591 3.89533 2.19698 3.89533 4.7332C3.89533 7.26943 5.95871 9.33282 8.49494 9.33282C11.0312 9.33282 13.0946 7.26943 13.0946 4.7332C13.0946 3.38601 12.5123 2.17218 11.5863 1.33021C11.5634 1.39522 11.5199 1.45347 11.4562 1.49167L4.4474 5.69709C4.39803 5.72671 4.34355 5.74081 4.28989 5.74081C4.18569 5.74081 4.08419 5.68765 4.02673 5.5918C3.93964 5.44657 3.98667 5.25827 4.1319 5.17112L11.1343 0.969546C10.3866 0.443657 9.47656 0.133591 8.49494 0.133591ZM6.77775 12.3992C3.15939 12.3992 0.215637 15.343 0.215637 18.9613V19.7586H4.38452L9.61777 12.3992H6.77775ZM10.3689 12.4011L5.13698 19.7586H8.80158L13.609 13.3486C12.6593 12.7718 11.5524 12.429 10.3689 12.4011ZM14.1183 13.6918L9.56818 19.7586H10.9481C11.1175 19.7586 11.2547 19.8959 11.2547 20.0652V23.1317C11.2547 23.301 11.1175 23.4383 10.9481 23.4383H0.215637V24.1539C0.215637 25.112 0.995059 25.8914 1.95319 25.8914H13.0946V18.2254C13.0946 18.056 13.2318 17.9188 13.4012 17.9188C13.5706 17.9188 13.7078 18.056 13.7078 18.2254V25.8914H15.0367C15.9948 25.8914 16.7742 25.112 16.7742 24.1539V18.9613C16.7742 16.8052 15.7288 14.8887 14.1183 13.6918ZM0.215637 20.3719V22.825H2.20389L3.94839 20.3719H0.215637ZM4.70086 20.3719L2.95636 22.825H6.50177L8.34162 20.3719H4.70086ZM9.10822 20.3719L7.26838 22.825H10.6414V20.3719H9.10822Z" fill="#999999"/>
</svg>
