<svg width="24" height="24" viewBox="0 0 24 24" fill="none" xmlns="http://www.w3.org/2000/svg">
<path d="M21.12 0.959991C20.2463 0.961866 19.4831 1.55249 19.2638 2.39999H7.68002C5.88377 2.39999 4.37252 3.64499 3.95627 5.31749C3.0544 5.48999 2.4019 6.27937 2.40002 7.19999C2.4019 8.08312 3.00565 8.85374 3.8644 9.06187C4.07627 10.98 5.70752 12.48 7.68002 12.48H16.32C17.6175 12.48 18.7069 13.3275 19.0706 14.5031C18.2888 14.7637 17.7619 15.495 17.76 16.32C17.76 17.1825 18.3375 17.9381 19.1681 18.1687C18.9713 19.5694 17.7769 20.64 16.32 20.64H4.73627C4.51877 19.7925 3.75565 19.2 2.88002 19.2C1.81877 19.2 0.960022 20.0587 0.960022 21.12C0.960022 22.1812 1.81877 23.04 2.88002 23.04C3.75377 23.0381 4.5169 22.4475 4.73627 21.6H16.32C18.2925 21.6 19.9238 20.1 20.1356 18.1819C20.9944 17.9737 21.5981 17.2031 21.6 16.32C21.6 15.3994 20.9456 14.61 20.0419 14.4356C19.6275 12.765 18.1163 11.52 16.32 11.52H7.68002C6.22315 11.52 5.03065 10.4494 4.8319 9.05062C5.6644 8.81999 6.24002 8.06249 6.24002 7.19999C6.24002 6.37499 5.71127 5.64374 4.9294 5.38124C5.29315 4.20749 6.38252 3.35999 7.68002 3.35999H19.2619C19.4813 4.20749 20.2444 4.79999 21.12 4.79999C22.1813 4.79999 23.04 3.94124 23.04 2.87999C23.04 1.81874 22.1813 0.959991 21.12 0.959991Z" fill="white"/>
</svg>
