<svg width="24" height="24" viewBox="0 0 24 24" fill="none" xmlns="http://www.w3.org/2000/svg">
<path d="M12.0384 0.960007C5.94687 0.960007 0.998413 5.90847 0.998413 12C0.998413 18.0915 5.94687 23.04 12.0384 23.04C18.13 23.04 23.0784 18.0915 23.0784 12C23.0784 5.90847 18.13 0.960007 12.0384 0.960007ZM12.0384 1.92001C17.6111 1.92001 22.1184 6.42729 22.1184 12C22.1184 17.5727 17.6111 22.08 12.0384 22.08C6.4657 22.08 1.95841 17.5727 1.95841 12C1.95841 6.42729 6.4657 1.92001 12.0384 1.92001ZM11.5584 2.94376C10.3143 3.25 9.21327 4.72375 8.51248 6.81751C9.47871 7.01527 10.5048 7.1314 11.5584 7.15876V2.94376ZM12.5184 2.94376V7.15876C13.5826 7.13188 14.6091 7.01893 15.5672 6.82501C14.8664 4.72741 13.7635 3.25 12.5184 2.94376ZM9.35904 3.28313C7.82016 3.75689 6.46061 4.63295 5.38685 5.78063C6.04013 6.10559 6.77362 6.37699 7.56466 6.59251C8.0125 5.22595 8.62656 4.09241 9.35904 3.28313ZM14.7178 3.28313C15.4517 4.09385 16.0671 5.23102 16.515 6.60094C17.3132 6.3835 18.0463 6.10806 18.6881 5.77782C17.6148 4.6311 16.2552 3.75641 14.7178 3.28313ZM19.3162 6.52782C18.5741 6.93054 17.7192 7.26383 16.7803 7.52063C17.088 8.72975 17.2721 10.08 17.3062 11.52H21.134C21.0361 9.65185 20.3761 7.93374 19.3162 6.52782ZM4.75591 6.53344C3.69847 7.9384 3.04071 9.65425 2.94279 11.52H6.7706C6.80468 10.0771 6.98929 8.72417 7.29841 7.51313C6.36817 7.25873 5.51095 6.92944 4.75591 6.53344ZM8.23779 7.73907C7.94259 8.88387 7.76564 10.1693 7.7306 11.52H11.5584V8.11876C10.4122 8.08996 9.29187 7.96035 8.23779 7.73907ZM15.84 7.74657C14.7945 7.96401 13.6752 8.09092 12.5184 8.11876V11.52H16.3462C16.3112 10.1722 16.1342 8.88945 15.84 7.74657ZM2.94279 12.48C3.04071 14.3482 3.70076 16.0663 4.7606 17.4722C5.50268 17.0695 6.35766 16.7362 7.29654 16.4794C6.98886 15.2703 6.80468 13.92 6.7706 12.48H2.94279ZM7.7306 12.48C7.76564 13.8278 7.94261 15.1106 8.23685 16.2534C9.28229 16.036 10.4016 15.9091 11.5584 15.8813V12.48H7.7306ZM12.5184 12.48V15.8813C13.6647 15.9101 14.784 16.0397 15.8381 16.2609C16.1333 15.1161 16.3112 13.8307 16.3462 12.48H12.5184ZM17.3062 12.48C17.2721 13.9229 17.0875 15.2758 16.7784 16.4869C17.7087 16.7413 18.5659 17.0706 19.3209 17.4666C20.3784 16.0616 21.0361 14.3458 21.134 12.48H17.3062ZM11.5584 16.8413C10.4943 16.8681 9.46774 16.9811 8.50966 17.175C9.21046 19.2726 10.3133 20.75 11.5584 21.0563V16.8413ZM12.5184 16.8413V21.0563C13.7626 20.75 14.8636 19.2763 15.5644 17.1825C14.5981 16.9847 13.572 16.8686 12.5184 16.8413ZM7.56185 17.3991C6.76361 17.6165 6.03049 17.892 5.38872 18.2222C6.46201 19.3689 7.8216 20.2436 9.35904 20.7169C8.62512 19.9062 8.00969 18.769 7.56185 17.3991ZM16.5122 17.4075C16.0643 18.7741 15.4493 19.9076 14.7169 20.7169C16.2557 20.2431 17.6162 19.3671 18.69 18.2194C18.0367 17.8944 17.3032 17.623 16.5122 17.4075Z" fill="white"/>
</svg>
