<svg width="20" height="20" viewBox="0 0 20 20" fill="none" xmlns="http://www.w3.org/2000/svg">
<path d="M9.94873 0.511719C8.90076 0.511719 8.04873 1.36375 8.04873 2.41172C8.04873 3.45969 8.90076 4.31172 9.94873 4.31172C10.9967 4.31172 11.8487 3.45969 11.8487 2.41172C11.8487 1.36375 10.9967 0.511719 9.94873 0.511719ZM8.20311 4.40672L5.69748 8.25422C5.48225 8.16961 5.25365 8.11172 5.00873 8.11172C3.96076 8.11172 3.10873 8.96375 3.10873 10.0117C3.10873 11.0597 3.96076 11.9117 5.00873 11.9117C6.0567 11.9117 6.90873 11.0597 6.90873 10.0117C6.90873 9.4818 6.68904 9.00234 6.33873 8.65797L8.83248 4.82234C8.59943 4.71398 8.39311 4.57297 8.20311 4.40672ZM11.6944 4.40672C11.5044 4.57297 11.298 4.71398 11.065 4.82234L13.5587 8.65797C13.2084 9.00234 12.9887 9.4818 12.9887 10.0117C12.9887 11.0597 13.8408 11.9117 14.8887 11.9117C15.9367 11.9117 16.7887 11.0597 16.7887 10.0117C16.7887 8.96375 15.9367 8.11172 14.8887 8.11172C14.6438 8.11172 14.4152 8.16961 14.2 8.25422L11.6944 4.40672ZM3.78561 12.3748L2.62186 15.7355C2.53131 15.7221 2.44225 15.7117 2.34873 15.7117C1.30076 15.7117 0.44873 16.5637 0.44873 17.6117C0.44873 18.6597 1.30076 19.5117 2.34873 19.5117C3.3967 19.5117 4.24873 18.6597 4.24873 17.6117C4.24873 16.9274 3.87764 16.3322 3.33436 15.9967L4.50998 12.6242C4.25615 12.5752 4.00826 12.4906 3.78561 12.3748ZM6.23186 12.3748C6.0092 12.4906 5.76131 12.5752 5.50748 12.6242L6.69498 15.9848C6.14428 16.3173 5.76873 16.923 5.76873 17.6117C5.76873 18.6597 6.62076 19.5117 7.66873 19.5117C8.7167 19.5117 9.56873 18.6597 9.56873 17.6117C9.56873 16.5637 8.7167 15.7117 7.66873 15.7117C7.58264 15.7117 7.50248 15.7236 7.41936 15.7355L6.23186 12.3748ZM13.6656 12.3748L12.4781 15.7355C12.395 15.7236 12.3148 15.7117 12.2287 15.7117C11.1808 15.7117 10.3287 16.5637 10.3287 17.6117C10.3287 18.6597 11.1808 19.5117 12.2287 19.5117C13.2767 19.5117 14.1287 18.6597 14.1287 17.6117C14.1287 16.923 13.7532 16.3173 13.2025 15.9848L14.39 12.6242C14.1362 12.5752 13.8883 12.4906 13.6656 12.3748ZM16.1119 12.3748C15.8892 12.4906 15.6413 12.5752 15.3875 12.6242L16.5631 15.9967C16.0198 16.3322 15.6487 16.9274 15.6487 17.6117C15.6487 18.6597 16.5008 19.5117 17.5487 19.5117C18.5967 19.5117 19.4487 18.6597 19.4487 17.6117C19.4487 16.5637 18.5967 15.7117 17.5487 15.7117C17.4552 15.7117 17.3662 15.7221 17.2756 15.7355L16.1119 12.3748Z" fill="#777777"/>
</svg>
