<svg width="23" height="23" viewBox="0 0 23 23" fill="none" xmlns="http://www.w3.org/2000/svg">
<path d="M10.9487 0.511719C5.43473 0.511719 0.94873 4.99772 0.94873 10.5117C0.94873 16.0257 5.43473 20.5117 10.9487 20.5117C11.1737 20.5117 11.3937 20.4935 11.6147 20.4785C11.3267 19.8645 11.1269 19.2028 11.0269 18.5078H11.021C10.974 18.1828 10.9487 17.8507 10.9487 17.5117C10.9487 13.6457 14.0827 10.5117 17.9487 10.5117C18.2877 10.5117 18.6198 10.5379 18.9448 10.5859V10.5898C19.6398 10.6888 20.3015 10.8907 20.9155 11.1797C20.9305 10.9577 20.9487 10.7367 20.9487 10.5117C20.9487 4.99772 16.4627 0.511719 10.9487 0.511719ZM9.94873 4.51172H11.9487V10.9258L7.65576 15.2188L6.2417 13.8047L9.94873 10.0977V4.51172ZM17.9487 12.5117C15.1987 12.5117 12.9487 14.7617 12.9487 17.5117C12.9487 20.2617 15.1987 22.5117 17.9487 22.5117C20.6987 22.5117 22.9487 20.2617 22.9487 17.5117C22.9487 14.7617 20.6987 12.5117 17.9487 12.5117ZM17.2026 14.5117H18.6968L18.5308 18.498H17.3667L17.2026 14.5117ZM17.9487 19.2461C18.0527 19.2461 18.1479 19.2628 18.2319 19.2988C18.3169 19.3348 18.3887 19.3843 18.4487 19.4453C18.5077 19.5063 18.5534 19.5781 18.5854 19.6621C18.6174 19.7451 18.6343 19.8365 18.6343 19.9355C18.6333 20.0315 18.6185 20.1191 18.5854 20.2031C18.5534 20.2871 18.5077 20.3589 18.4487 20.4199C18.3887 20.4809 18.3169 20.5305 18.2319 20.5645C18.1479 20.5985 18.0527 20.6152 17.9487 20.6152C17.8437 20.6152 17.7505 20.5995 17.6655 20.5645C17.5825 20.5315 17.5097 20.4809 17.4507 20.4199C17.3917 20.3589 17.345 20.2871 17.312 20.2031C17.279 20.1191 17.2632 20.0305 17.2632 19.9355C17.2632 19.8365 17.28 19.7451 17.312 19.6621C17.345 19.5781 17.3917 19.5063 17.4507 19.4453C17.5097 19.3843 17.5825 19.3348 17.6655 19.2988C17.7505 19.2628 17.8447 19.2461 17.9487 19.2461Z" fill="#777777"/>
</svg>
