<svg width="25" height="20" viewBox="0 0 25 20" fill="none" xmlns="http://www.w3.org/2000/svg">
<path d="M9.87 0.41172C9.07687 0.41172 8.43 1.0586 8.43 1.85172V3.29172H2.19C1.39687 3.29172 0.75 3.93859 0.75 4.73172V7.13172H3.63C3.63 6.60297 4.06125 6.17172 4.59 6.17172H6.51C7.03875 6.17172 7.47 6.60297 7.47 7.13172H18.03C18.03 6.60297 18.4612 6.17172 18.99 6.17172H20.91C21.4387 6.17172 21.87 6.60297 21.87 7.13172H24.75V4.73172C24.75 3.93859 24.1031 3.29172 23.31 3.29172H17.07V1.85172C17.07 1.0586 16.4231 0.41172 15.63 0.41172H9.87ZM9.87 1.37172H15.63C15.8944 1.37172 16.11 1.58735 16.11 1.85172V3.29172H9.39V1.85172C9.39 1.58735 9.60562 1.37172 9.87 1.37172ZM4.59 7.13172V8.09172H6.51V7.13172H4.59ZM18.99 7.13172V8.09172H20.91V7.13172H18.99ZM0.75 8.09172V18.1717C0.75 18.9648 1.39687 19.6117 2.19 19.6117H23.31C24.1031 19.6117 24.75 18.9648 24.75 18.1717V8.09172H21.87C21.87 8.62047 21.4387 9.05172 20.91 9.05172H18.99C18.4612 9.05172 18.03 8.62047 18.03 8.09172H7.47C7.47 8.62047 7.03875 9.05172 6.51 9.05172H4.59C4.06125 9.05172 3.63 8.62047 3.63 8.09172H0.75ZM11.79 10.0117H13.71V11.9317H15.63V13.8517H13.71V15.7717H11.79V13.8517H9.87V11.9317H11.79V10.0117Z" fill="white"/>
</svg>
