<svg width="20" height="19" viewBox="0 0 20 19" fill="none" xmlns="http://www.w3.org/2000/svg">
<path d="M15.3239 0.0644073C13.1197 0.0644073 11.3373 1.85138 11.3373 4.05107C11.3373 6.25077 13.1197 8.03772 15.3239 8.03772C17.5281 8.03772 19.3106 6.25531 19.3106 4.05107C19.3106 1.84684 17.5281 0.0644073 15.3239 0.0644073ZM15.3557 6.99913C13.7093 6.99913 12.3759 5.6657 12.3759 4.01933C12.3759 2.37296 13.7093 1.03953 15.3557 1.03953C17.002 1.03953 18.3354 2.37296 18.3354 4.01933C18.3354 5.6657 17.002 6.99913 15.3557 6.99913ZM15.8001 4.07375C15.8001 4.34134 15.5824 4.56358 15.3103 4.56358C15.0382 4.56358 14.8205 4.34134 14.8205 4.07375C14.8205 3.80616 15.0382 3.58392 15.3103 3.58392C15.5824 3.58392 15.8001 3.80163 15.8001 4.07375ZM15.3239 4.01479H15.1878C15.138 4.01479 15.1017 3.97851 15.1017 3.92862V2.26864C15.1017 2.21875 15.138 2.18247 15.1878 2.18247H15.3239C15.3738 2.18247 15.4101 2.21875 15.4101 2.26864V3.92862C15.4101 3.97398 15.3693 4.01479 15.3239 4.01479ZM17.9545 4.28692H15.401C15.3647 4.28692 15.333 4.25518 15.333 4.21889V4.04654C15.333 4.01026 15.3647 3.97851 15.401 3.97851H17.9545C17.9907 3.97851 18.0225 4.01026 18.0225 4.04654V4.21889C18.0225 4.25518 17.9907 4.28692 17.9545 4.28692ZM7.77689 3.52043C9.97204 3.52043 11.75 5.21215 11.75 7.30301C11.75 9.39388 9.97204 11.0856 7.77689 11.0856C5.58173 11.0856 3.80383 9.39388 3.80383 7.30301C3.80383 5.21215 5.58173 3.52043 7.77689 3.52043ZM10.3576 11.9201L7.73612 11.8974L5.11459 11.9201L4.17574 11.9156C3.84012 11.97 3.43646 12.0925 3.01013 12.3419C1.87626 13.0086 0.479342 14.7548 0.737865 16.4964C0.996388 18.238 1.52703 18.6598 7.7225 18.4919C13.9224 18.6553 14.4486 18.2426 14.7071 16.4964C14.9701 14.7503 13.5732 12.9996 12.4393 12.3328C11.9722 12.0607 11.5459 11.9428 11.1921 11.8974L10.3576 11.9201Z" fill="#555555"/>
</svg>
