<svg width="14" height="14" viewBox="0 0 14 14" fill="none" xmlns="http://www.w3.org/2000/svg">
<path d="M9.53347 9.54067L9.29054 11.5939H9.07751L9.02835 13.4567H7.52312L7.51007 11.548L7.27056 11.5022L7.15246 9.38684C7.12306 8.85232 7.47059 8.39972 7.90678 8.39972H8.72029C9.22205 8.40308 9.60235 8.94096 9.53386 9.54106L9.53347 9.54067ZM11.8753 3.69956C11.7804 3.55206 11.682 3.39784 11.577 3.22723C11.4623 3.04023 11.3408 2.85996 11.2097 2.68935L11.5476 1.9611C11.6098 1.82663 11.4753 1.6888 11.3408 1.74468L10.6487 2.03674C10.065 1.44633 9.37291 0.98072 8.58247 0.649586C7.57229 0.223062 6.4015 0.0133711 5.09926 0.0167329C2.89183 0.026398 1.04201 0.669338 1.02268 0.676063C0.970154 0.692449 0.940738 0.751282 0.963431 0.80717C0.973096 0.830282 0.989484 0.846673 1.0126 0.856338C2.65903 1.66988 3.71168 2.7486 4.05627 3.98531C4.31554 4.91694 4.08568 5.61535 4.08232 5.62504C4.06929 5.6578 4.07896 5.69392 4.10207 5.72337C4.12518 5.75277 4.1609 5.76285 4.19704 5.75613C4.85973 5.62168 5.7548 6.05786 5.76489 6.06122C5.80733 6.08093 5.85986 6.06794 5.8897 6.03176L6.11283 5.7204C6.13889 5.68428 6.13889 5.63848 6.11283 5.60232C5.89978 5.31027 5.09926 5.17286 4.81392 5.13C4.8467 3.47684 4.15124 2.42419 3.56124 1.82747C3.19397 1.45347 2.8267 1.21394 2.56742 1.06981V1.06644C3.69235 1.024 4.56137 1.26984 5.15178 1.79763C5.90272 2.46663 5.93256 3.37515 5.93256 3.38187C5.93256 3.43104 5.9687 3.47054 6.01786 3.47684C6.94279 3.59492 7.71347 3.96892 8.32364 4.59211V4.59547C8.27783 4.57908 8.23158 4.56942 8.18241 4.56942C8.06772 4.56942 7.96267 4.61186 7.88068 4.69423L1.83623 10.703C1.38702 11.1488 1.20001 11.7985 1.35087 12.3986C1.44584 12.7822 1.66226 13.0743 1.97406 13.2382C2.16736 13.3399 2.39387 13.3924 2.64642 13.3924C2.96116 13.3924 3.31542 13.3167 3.73521 13.1596C3.96802 13.0709 4.07938 12.802 3.96802 12.5726C3.86969 12.3725 3.63016 12.2906 3.42341 12.3658C2.77417 12.6087 2.48547 12.5427 2.37076 12.4839C2.27873 12.4347 2.21317 12.3398 2.17745 12.1918C2.09887 11.8834 2.20056 11.5455 2.43673 11.3098L8.48123 5.30438C8.58964 5.19597 8.62531 5.04511 8.59591 4.9077C8.59591 4.9077 8.59591 4.90434 8.59927 4.9077C8.71066 5.04553 8.81235 5.19303 8.91069 5.35061C9.41575 6.16079 9.55027 6.93824 9.55027 6.94451C9.55699 6.98696 9.59271 7.02016 9.63219 7.02644C10.8 7.18699 11.5442 7.92826 11.8459 9.2339C12.0754 10.2244 11.951 11.1787 11.9476 11.1887C11.9409 11.2379 11.9708 11.2808 12.0165 11.2972C12.0262 11.3005 12.0363 11.3005 12.046 11.3005C12.0821 11.3005 12.1182 11.2808 12.1346 11.2446C13.9748 7.4433 12.4036 4.50806 11.8753 3.70124V3.69956ZM8.37908 8.04172C8.70058 8.04172 8.95941 7.78244 8.95941 7.46139C8.95941 7.14034 8.70013 6.88106 8.37908 6.88106C8.05764 6.88106 7.79875 7.14034 7.79875 7.46139C7.80211 7.77947 8.061 8.04172 8.37908 8.04172Z" fill="#8B4367"/>
</svg>
