<svg width="14" height="25" viewBox="0 0 14 25" fill="none" xmlns="http://www.w3.org/2000/svg">
<path d="M11.8044 22.1117V24.0024C11.8044 24.2834 11.5542 24.5117 11.2424 24.5117C10.9307 24.5117 10.6806 24.2834 10.6806 24.0024V22.1117C10.6806 21.8307 10.9307 21.6024 11.2424 21.6024C11.5542 21.6024 11.8044 21.8307 11.8044 22.1117ZM2.66833 21.6024C2.36096 21.6024 2.10633 21.8307 2.10633 22.1117V24.0024C2.10633 24.2834 2.35661 24.5117 2.66833 24.5117C2.97999 24.5117 3.23027 24.2834 3.23027 24.0024V22.1117C3.22587 21.8307 2.97564 21.6024 2.66833 21.6024ZM13.8634 9.82486V19.7117C13.8634 20.7302 13.2927 21.6317 12.4146 22.1527C12.2874 21.5088 11.7956 21.0229 11.2118 21.0229C10.5312 21.0229 9.97804 21.6785 9.97804 22.4922C9.97804 22.539 9.97804 22.5917 9.98244 22.6385H3.86244C3.86684 22.5917 3.86684 22.539 3.86684 22.4922C3.86684 21.6844 3.3137 21.0229 2.63318 21.0229C2.0537 21.0229 1.57073 21.4912 1.43467 22.1234C0.587351 21.5966 0.0297852 20.7068 0.0297852 19.7058V9.78389C0.0297852 8.23852 1.41273 6.98583 3.1249 6.98583H3.23467V1.27269C3.23467 0.933172 3.53758 0.663899 3.90198 0.663899H4.43318V1.42487H4.07759V6.99172H9.63564V1.41901H9.28004V0.658039H9.81124C10.1844 0.658039 10.4786 0.933172 10.4786 1.26683V6.98H10.7288C12.4586 6.99172 13.8634 8.25612 13.8634 9.82486ZM3.64296 12.2307C3.64296 12.6346 4.00296 12.9624 4.44633 12.9624H9.40736C9.85073 12.9624 10.2107 12.6347 10.2107 12.2307C10.2107 11.8268 9.85073 11.499 9.40736 11.499H4.44633C4.0117 11.4932 3.64296 11.8268 3.64296 12.2307ZM3.6561 14.8239C3.6561 15.2278 4.0161 15.5556 4.45953 15.5556H9.42056C9.86393 15.5556 10.2239 15.2278 10.2239 14.8239C10.2239 14.42 9.86393 14.0922 9.42056 14.0922H4.45953C4.0161 14.0863 3.6561 14.4141 3.6561 14.8239ZM10.2458 17.4171C10.2458 17.0132 9.88581 16.6854 9.44244 16.6854H4.48147C4.0381 16.6854 3.6781 17.0132 3.6781 17.4171C3.6781 17.821 4.0381 18.1488 4.48147 18.1488H9.44244C9.88581 18.1488 10.2458 17.821 10.2458 17.4171ZM9.28884 1.56538H4.43758V0.511719H9.28884V1.56538Z" fill="#777777"/>
</svg>
