<svg width="14" height="14" viewBox="0 0 14 14" fill="none" xmlns="http://www.w3.org/2000/svg">
<path d="M11.8173 11.4264C11.8073 11.4397 11.7936 11.4502 11.7802 11.4635C11.7466 11.5006 11.7095 11.5377 11.6724 11.5748C11.659 11.5881 11.6456 11.6015 11.6319 11.6153C11.6116 11.6355 11.5913 11.6524 11.5714 11.6726C11.5581 11.686 11.5413 11.6994 11.5245 11.7162C11.5042 11.7365 11.4839 11.7533 11.4641 11.7701C11.4473 11.7834 11.4305 11.8002 11.4171 11.8136C11.3968 11.8304 11.3766 11.8507 11.3567 11.8675C10.7746 12.3691 10.0406 12.8098 9.1152 13.1164C4.43674 14.5972 1.91275 10.7942 1.91275 10.7942C2.45136 10.8279 2.98998 10.6597 2.98998 10.6597L3.79767 11.3328C4.84126 12.0396 5.14396 10.9287 5.74983 10.0538C6.10996 9.53543 6.55105 9.34701 6.85034 9.2797C7.12289 9.21933 7.40925 9.2797 7.62443 9.45826C8.30746 10.0305 7.85985 11.3328 8.40879 11.535C9.04834 11.7705 10.0243 11.4678 9.41836 9.98693C8.91335 8.7519 9.92678 7.98778 10.7849 8.17275C10.7918 8.17275 10.7948 8.1762 10.8017 8.1762C10.8453 8.18611 10.8858 8.19994 10.9298 8.2133C10.9367 8.21674 10.9397 8.21674 10.9466 8.22018C10.9872 8.23698 11.0307 8.25384 11.0712 8.27408C11.0747 8.27753 11.0812 8.28097 11.0846 8.28097C11.1252 8.30127 11.1622 8.32454 11.2024 8.35173C11.2058 8.35517 11.2123 8.35862 11.2157 8.36164C11.236 8.375 11.2528 8.38841 11.2731 8.40521C12.1481 9.11198 12.4176 8.50609 12.7539 7.732C13.0903 6.95797 13.5616 7.46295 13.5616 7.46295C13.5616 7.46295 13.5616 7.46295 13.5616 7.4664C13.5616 7.4664 13.5616 7.4664 13.5616 7.46984V7.47328C13.5616 7.47328 13.5616 7.47673 13.5616 7.48017C13.5616 7.48362 13.5616 7.48362 13.5616 7.48712C13.5616 7.49056 13.5616 7.49056 13.5616 7.494C13.5616 7.50089 13.5616 7.50392 13.5616 7.5108C13.5616 7.51425 13.5616 7.51769 13.5616 7.51769C13.5616 7.52114 13.5616 7.5276 13.5616 7.53105C13.5616 7.53455 13.5616 7.53799 13.5616 7.54446C13.5616 7.5479 13.5616 7.55437 13.5616 7.55782C13.5616 7.56126 13.5616 7.56773 13.5616 7.57117C13.5616 7.57806 13.5616 7.58108 13.5616 7.58803C13.5616 7.59492 13.5616 7.60483 13.5582 7.61172C13.5582 7.6186 13.5547 7.62852 13.5547 7.63848C13.5547 7.64537 13.5547 7.65184 13.5513 7.65873C13.5513 7.66562 13.5513 7.67208 13.5478 7.67897C13.5478 7.68592 13.5444 7.69583 13.5444 7.70272C13.5444 7.7096 13.5409 7.71607 13.5409 7.72296C13.5409 7.73287 13.5375 7.73982 13.5375 7.74973C13.5375 7.75662 13.5341 7.76308 13.5341 7.76997C13.5306 7.78683 13.5306 7.80363 13.5271 7.82387C13.5271 7.83076 13.5236 7.84073 13.5236 7.84762C13.5236 7.85753 13.5202 7.86786 13.5202 7.88122C13.5202 7.88816 13.5167 7.89807 13.5167 7.90496C13.5133 7.91487 13.5133 7.92865 13.5099 7.93862C13.5099 7.9455 13.5064 7.95542 13.5064 7.9623C13.4995 8.00587 13.4896 8.04986 13.4827 8.10032C13.4827 8.1072 13.4792 8.11712 13.4792 8.124C13.4758 8.13742 13.4723 8.15422 13.4693 8.16757C13.4659 8.17748 13.4659 8.18437 13.4624 8.19434C13.459 8.21114 13.4555 8.2245 13.4525 8.24135C13.4525 8.24824 13.4491 8.25471 13.4491 8.2616C13.4422 8.29525 13.4357 8.32885 13.4253 8.36595C13.4253 8.37284 13.4219 8.37584 13.4219 8.38275C13.4184 8.39961 13.415 8.41641 13.4085 8.43665C13.4051 8.44659 13.4051 8.45351 13.4016 8.46339C13.3982 8.48019 13.3917 8.50049 13.3883 8.51729C13.3848 8.52421 13.3848 8.53409 13.3814 8.54104C13.3645 8.6014 13.3477 8.66564 13.3274 8.73289C13.324 8.73984 13.324 8.74975 13.3206 8.75664C13.3136 8.77691 13.3106 8.79721 13.3038 8.817C13.3003 8.82692 13.2968 8.8338 13.2968 8.84377C13.2899 8.86402 13.2835 8.88426 13.2766 8.90414C13.2731 8.91103 13.2731 8.9175 13.2696 8.92438C13.246 8.99514 13.2227 9.06584 13.1989 9.13654C13.1955 9.14651 13.1921 9.1534 13.1891 9.16331C13.1821 9.18355 13.1722 9.20685 13.1653 9.22709C13.1618 9.237 13.1584 9.24739 13.1554 9.25386C13.1455 9.27755 13.1386 9.30087 13.1286 9.32111C13.1286 9.32111 13.1286 9.32456 13.1252 9.32456C13.105 9.37502 13.0847 9.42891 13.0648 9.47937C13.0614 9.48626 13.0579 9.49278 13.0579 9.49967C13.048 9.52336 13.0377 9.54668 13.0277 9.56693C13.0243 9.57684 13.0178 9.58717 13.0144 9.59714C13.0045 9.62083 12.9941 9.64415 12.9842 9.6644C12.9808 9.67431 12.9773 9.6812 12.9708 9.69111C12.9372 9.76875 12.9001 9.84595 12.8596 9.92353C12.8561 9.93345 12.8496 9.94386 12.8462 9.95375C12.8363 9.97744 12.8225 10.0008 12.8091 10.0244C12.8022 10.0344 12.7992 10.0447 12.7923 10.0581C12.7789 10.0818 12.7686 10.1051 12.7552 10.1288C12.7518 10.1357 12.7483 10.1422 12.7418 10.1525C12.7151 10.203 12.6845 10.2535 12.6543 10.3039C12.6508 10.3108 12.6474 10.3173 12.6444 10.3207C12.6311 10.3444 12.6176 10.3677 12.6039 10.3914C12.5969 10.4014 12.5905 10.4152 12.5836 10.4251C12.5702 10.4488 12.5569 10.4721 12.5401 10.4923C12.5332 10.5023 12.5266 10.5161 12.5163 10.526C12.4659 10.6036 12.4154 10.6808 12.3615 10.755C12.3546 10.7649 12.3447 10.7787 12.3378 10.7886C12.321 10.8123 12.3076 10.8321 12.2908 10.8559C12.2809 10.8692 12.2705 10.8826 12.264 10.893C12.2472 10.9167 12.2304 10.9365 12.2136 10.9602C12.2037 10.9736 12.1968 10.984 12.1869 10.9973C12.1498 11.0443 12.1127 11.0918 12.0756 11.1353C12.0687 11.1422 12.0656 11.1487 12.0588 11.1556C12.042 11.1758 12.0217 11.1992 12.0049 11.2194C11.9949 11.2328 11.9812 11.2461 11.9712 11.2599C11.9544 11.2802 11.9342 11.3005 11.9173 11.3203C11.9039 11.3337 11.8936 11.347 11.8803 11.3609C11.8535 11.3876 11.8367 11.4079 11.8164 11.4281L11.8173 11.4264ZM0.693227 8.03043C0.736783 8.32325 0.905391 8.58934 1.16111 8.7407C1.77389 9.10767 1.77389 8.165 1.77389 8.165C1.77389 8.165 1.81745 7.26284 2.19478 6.58669C2.19823 6.57975 2.20469 6.56984 2.20814 6.56295C2.21504 6.54959 2.22152 6.53926 2.22841 6.52585C2.23531 6.51594 2.23833 6.5056 2.24523 6.49914C2.25213 6.48925 2.2586 6.47884 2.26205 6.46895C2.26895 6.45904 2.27542 6.44871 2.28232 6.4388C2.28922 6.43191 2.29224 6.42194 2.29914 6.41505C2.30603 6.40514 2.31595 6.39134 2.32285 6.38145C2.3263 6.37451 2.33277 6.36804 2.33622 6.36115C2.34614 6.3478 2.35649 6.33744 2.36296 6.32405C2.36641 6.31714 2.37288 6.31414 2.37632 6.30725C2.38624 6.2939 2.3966 6.28354 2.40651 6.27015C2.40996 6.26671 2.41341 6.26024 2.41643 6.2568C2.42635 6.24344 2.44015 6.23008 2.45006 6.2197C2.45352 6.21625 2.45697 6.21281 2.45998 6.20978C2.47335 6.19643 2.48672 6.18307 2.49707 6.17268C2.50052 6.16924 2.50397 6.1658 2.50397 6.1658C2.51734 6.15244 2.5307 6.14211 2.54451 6.1287C2.54796 6.12525 2.54796 6.12525 2.5514 6.12181C2.56477 6.10845 2.58159 6.09809 2.59496 6.08474C2.59841 6.08474 2.59841 6.08129 2.60186 6.08129C2.61868 6.06791 2.63204 6.05755 2.64886 6.04764L2.65231 6.04419C2.66913 6.03431 2.68595 6.02045 2.70276 6.01054C2.70276 6.01054 2.70622 6.01054 2.70622 6.00709C2.72304 5.99721 2.74331 5.98685 2.76012 5.97691C2.76012 5.97691 2.76012 5.97691 2.76357 5.97691C2.78384 5.967 2.80064 5.95664 2.82092 5.9502C2.82092 5.9502 2.82092 5.9502 2.82439 5.9502C2.84463 5.94028 2.8649 5.9334 2.88518 5.92645C2.90545 5.91954 2.92572 5.9131 2.94902 5.90621C3.30218 5.80185 3.76015 5.86564 4.35266 6.21925C6.7762 7.66648 7.31438 5.51247 7.24707 4.67116C7.17982 3.82981 7.88659 2.18035 9.16566 2.24763C9.80515 2.28126 9.98371 2.01218 10.0005 1.73274C10.0208 1.42311 9.82545 1.14022 9.53607 1.0225C7.34152 0.147528 5.47688 0.615412 4.30564 1.15359C4.3022 1.15359 4.3022 1.15704 4.29876 1.15704C4.27504 1.16696 4.2483 1.18076 4.22458 1.19068C4.22114 1.19068 4.22114 1.19413 4.2177 1.19413C3.70625 1.43648 3.33925 1.68875 3.15081 1.83019C3.15081 1.83019 3.15081 1.83019 3.14737 1.83019C3.13746 1.8371 3.13054 1.84356 3.12063 1.85046C3.087 1.87418 3.06328 1.89402 3.04343 1.91127L3.03999 1.91472C3.03654 1.91817 3.0331 1.92162 3.03008 1.92162L3.02663 1.92506C3.02316 1.92852 3.02316 1.92852 3.01972 1.93197L3.01627 1.93541C3.01283 1.93541 3.01283 1.93887 3.01283 1.93887C3.01283 1.93887 3.00938 1.93887 3.00938 1.94232C3.00938 1.94232 3.00938 1.94232 3.00591 1.94576C2.96884 1.97595 2.93174 2.00657 2.89467 2.0402C2.88476 2.05012 2.87095 2.06047 2.86104 2.06694C2.8343 2.09066 2.81058 2.11049 2.78384 2.13421C2.77392 2.14413 2.76012 2.15448 2.7502 2.1644C2.72347 2.18812 2.6963 2.21485 2.66956 2.23857C2.66266 2.24547 2.65619 2.25194 2.6493 2.25884C2.61566 2.28903 2.58202 2.32266 2.55184 2.35328C2.54192 2.3632 2.53502 2.3701 2.5251 2.38002C2.50138 2.40374 2.4781 2.42702 2.45438 2.45074C2.44446 2.46066 2.43411 2.47446 2.42074 2.48438C2.39703 2.50809 2.37719 2.53138 2.35692 2.55165C2.347 2.56156 2.33666 2.57191 2.33018 2.58183C2.3 2.61202 2.27283 2.64566 2.24265 2.67627C2.23574 2.68317 2.22928 2.68964 2.22238 2.69999C2.19866 2.72371 2.17882 2.75045 2.1551 2.77718C2.14518 2.79055 2.13483 2.8009 2.12492 2.81426C2.1081 2.83454 2.09128 2.8548 2.07102 2.87809C2.0611 2.89146 2.05075 2.90483 2.04083 2.91518C2.02056 2.93889 2.00374 2.96218 1.98347 2.9859C1.97658 2.99582 1.96666 3.00617 1.95975 3.01608C1.93604 3.04627 1.91275 3.07689 1.88903 3.10708C1.87911 3.12043 1.86876 3.13382 1.85885 3.14762C1.84548 3.16786 1.83211 3.18469 1.81831 3.20496C1.80839 3.22179 1.7946 3.23515 1.78468 3.25198C1.77131 3.26878 1.75794 3.28905 1.74414 3.30588C1.73422 3.31923 1.72387 3.33606 1.71396 3.34942C1.69368 3.3796 1.67342 3.41023 1.65358 3.44042C1.64367 3.45724 1.63331 3.47404 1.62339 3.49087C1.61347 3.5077 1.60313 3.5245 1.59321 3.53788C1.58329 3.55468 1.56949 3.57496 1.55957 3.59178C1.54966 3.60514 1.54275 3.62197 1.53283 3.63532C1.52292 3.65215 1.50912 3.67242 1.4992 3.68922C1.4923 3.70261 1.48238 3.71596 1.47548 3.72977C1.45522 3.76687 1.43495 3.80394 1.41511 3.83757C1.40821 3.84751 1.40174 3.86128 1.39484 3.87122C1.38492 3.8915 1.37112 3.91174 1.36121 3.93159C1.35431 3.9415 1.34784 3.95531 1.34094 3.96522C1.33102 3.98549 1.32067 4.00576 1.3073 4.02906C1.30385 4.03897 1.29739 4.0493 1.29394 4.05924C1.25685 4.13342 1.22321 4.20412 1.18958 4.27787C1.18612 4.28778 1.18268 4.2947 1.17966 4.30461C1.16974 4.32832 1.15939 4.34815 1.14947 4.37186C1.14602 4.37878 1.14257 4.38869 1.13955 4.39561C1.10592 4.47278 1.07573 4.54695 1.04511 4.62456C1.04511 4.62804 1.04167 4.63148 1.04167 4.63795C0.503056 6.07866 0.600947 7.40774 0.694951 8.03043H0.693227ZM9.35021 7.42801C9.35021 7.42801 9.88882 6.92303 9.2493 6.24991C8.60975 5.5767 8.23978 6.04808 8.23978 6.04808C8.23978 6.04808 6.11943 8.16844 3.59498 9.07704C1.07055 9.98564 0.76783 9.6493 0.76783 9.44751C0.76783 9.24568 1.07055 9.07704 1.07055 9.07704C0.700131 8.90887 -1.45388 10.7261 1.91189 10.5242C5.88353 10.2888 9.35021 7.42801 9.35021 7.42801ZM13.453 2.37915C13.2913 2.41279 13.076 2.49343 12.8169 2.68188C12.5948 2.84014 12.4296 2.96132 12.3054 3.04886C12.1204 3.17996 11.8846 3.22395 11.6659 3.16658L9.38731 2.59089C9.2157 2.54733 9.04058 2.64479 8.98324 2.81297L8.91248 3.02169C8.91248 3.02169 10.6965 4.1998 10.8647 4.30072C10.8647 4.30072 10.424 4.81216 10.3226 4.87945C10.2213 4.9467 10.1342 5.04417 9.70682 4.99372C9.27951 4.93982 9.23205 4.99716 9.23205 4.99716L8.98279 5.17569C8.98279 5.17569 9.55503 5.57978 9.72325 5.6807C9.89139 5.78161 10.0937 6.017 10.3627 6.82514C10.3627 6.82514 10.753 6.64362 10.7129 6.3978C10.706 6.3607 10.6995 6.3236 10.703 6.28656C10.7064 6.108 10.7233 5.64015 10.8039 5.61338C10.8914 5.58323 11.3726 5.18949 11.487 5.09505C11.5003 5.08514 11.5206 5.08816 11.5275 5.10194C11.6284 5.27013 12.1769 6.18565 12.4193 6.82514C12.6884 7.53192 13.0588 6.82514 13.0588 6.82514L12.7694 4.3818C12.7427 4.15971 12.8233 3.93761 12.9816 3.7828C13.0152 3.74917 13.0455 3.71554 13.076 3.68192C13.1468 3.60472 13.214 3.54046 13.2814 3.47318C13.446 3.31492 13.5909 3.12992 13.6987 2.92811C13.7289 2.87076 13.7561 2.81039 13.7794 2.74958C13.8432 2.54432 13.6651 2.3356 13.453 2.37915Z" fill="#343571"/>
</svg>
