<svg width="22" height="22" viewBox="0 0 22 22" fill="none" xmlns="http://www.w3.org/2000/svg">
<path d="M10.9985 0.00049308C10.8657 0.00059808 10.7343 0.0271571 10.6118 0.0786191L0.61181 4.28956C0.430534 4.36604 0.27584 4.49431 0.167099 4.65829C0.0583583 4.82227 0.000404372 5.01467 0.000488372 5.21143V21.0005C0.000515372 21.2657 0.10588 21.5201 0.293411 21.7076C0.480941 21.8951 0.735275 22.0004 1.00049 22.0005H21.0005C21.2657 22.0004 21.5201 21.8951 21.7076 21.7076C21.8951 21.5201 22.0004 21.2657 22.0005 21.0005V5.21143C22.0005 5.01467 21.9426 4.82227 21.8339 4.65829C21.7251 4.49431 21.5705 4.36604 21.3891 4.28956L11.3892 0.0786191C11.2655 0.0266456 11.1327 7.75805e-05 10.9985 0.00049308ZM6.89893 6.0005H7.00049C7.5535 6.0005 8.00049 6.44849 8.00049 7.00049C8.00049 7.55249 7.5535 8.00049 7.00049 8.00049V10.4302C7.00049 11.2962 7.89749 12.0005 9.00048 12.0005C10.1035 12.0005 11.0005 11.2952 11.0005 10.4282V8.00049C10.4475 8.00049 10.0005 7.55249 10.0005 7.00049C10.0005 6.44849 10.4475 6.0005 11.0005 6.0005H11.102C12.1481 6.0005 13.0005 6.79403 13.0005 7.77002V10.4302C13.0005 12.0972 11.7101 13.4894 9.97705 13.8813C9.98205 13.9224 10.0005 13.9585 10.0005 14.0004V14.1528C10.0005 15.7238 11.1215 17.0005 12.5005 17.0005C13.7155 17.0005 14.7276 16.0068 14.9516 14.6958C14.3826 14.3438 14.0004 13.7195 14.0004 13.0005C14.0004 11.8955 14.8955 11.0005 16.0005 11.0005C17.1054 11.0005 18.0005 11.8955 18.0005 13.0005C18.0005 13.7615 17.5698 14.4164 16.9439 14.7543C16.6658 17.1414 14.7915 19.0005 12.5005 19.0005C10.0195 19.0005 8.00049 16.8258 8.00049 14.1528V14.0004C8.00049 13.9575 8.01893 13.9224 8.02393 13.8813C6.29093 13.4904 5.00049 12.0972 5.00049 10.4302V7.77002C5.00049 6.79403 5.85293 6.0005 6.89893 6.0005Z" fill="#CCCCCC"/>
</svg>
