<svg width="14" height="14" viewBox="0 0 14 14" fill="none" xmlns="http://www.w3.org/2000/svg">
<path d="M2.08771 0.257325C1.07764 0.257325 0.245605 1.08936 0.245605 2.09943V11.924C0.245605 12.9414 1.07025 13.7661 2.08771 13.7661H12.5263C13.2048 13.7661 13.7544 13.2165 13.7544 12.538V3.94155C13.7544 3.26303 13.2048 2.71347 12.5263 2.71347H7.61404H2.08771C1.74076 2.71347 1.47368 2.44638 1.47368 2.09943C1.47368 1.75248 1.74076 1.48539 2.08771 1.48539H11.2982C11.3796 1.48655 11.4604 1.47151 11.5359 1.44117C11.6114 1.41083 11.6801 1.36578 11.7381 1.30865C11.796 1.25152 11.842 1.18344 11.8734 1.10837C11.9049 1.0333 11.921 0.952734 11.921 0.871361C11.921 0.789984 11.9049 0.709421 11.8734 0.634352C11.842 0.559282 11.796 0.491202 11.7381 0.434067C11.6801 0.376936 11.6114 0.33189 11.5359 0.301548C11.4604 0.271206 11.3796 0.256174 11.2982 0.257325H2.08771ZM11.2982 7.01171C11.9767 7.01171 12.5263 7.56128 12.5263 8.23977C12.5263 8.91829 11.9767 9.46786 11.2982 9.46786C10.6197 9.46786 10.0702 8.91829 10.0702 8.23977C10.0702 7.56128 10.6197 7.01171 11.2982 7.01171Z" fill="#543864"/>
</svg>
