<svg width="22" height="22" viewBox="0 0 22 22" fill="none" xmlns="http://www.w3.org/2000/svg">
<path fill-rule="evenodd" clip-rule="evenodd" d="M3 0.25C1.481 0.25 0.25 1.481 0.25 3V5C0.25 6.519 1.481 7.75 3 7.75H5C6.519 7.75 7.75 6.519 7.75 5V4.75H15C15.597 4.75 16.1698 4.9862 16.5918 5.4082C17.0138 5.8302 17.25 6.403 17.25 7V7.25H17C15.481 7.25 14.25 8.481 14.25 10V10.25H7C6.005 10.25 5.05166 10.6447 4.34766 11.3477C3.64466 12.0517 3.25 13.005 3.25 14V14.25H3C1.481 14.25 0.25 15.481 0.25 17V19C0.25 20.519 1.481 21.75 3 21.75H5C6.519 21.75 7.75 20.519 7.75 19V18.75H12.1914L11.4707 19.4707C11.1777 19.7627 11.1777 20.2373 11.4707 20.5293C11.7627 20.8223 12.2373 20.8223 12.5293 20.5293L14.5293 18.5293C14.5358 18.5228 14.5387 18.5145 14.5449 18.5078C14.6053 18.4433 14.6583 18.3717 14.6934 18.2871V18.2852L14.6953 18.2832C14.6978 18.277 14.6969 18.27 14.6992 18.2637C14.7281 18.187 14.7412 18.1087 14.7441 18.0293C14.7452 18.0028 14.742 17.9776 14.7402 17.9512C14.736 17.8883 14.7248 17.8274 14.7051 17.7676C14.6964 17.741 14.6895 17.7151 14.6777 17.6895C14.6412 17.6096 14.5939 17.535 14.5293 17.4707L12.5293 15.4707C12.2373 15.1777 11.7627 15.1777 11.4707 15.4707C11.1777 15.7627 11.1777 16.2373 11.4707 16.5293L12.1895 17.25H7.75V17C7.75 15.481 6.519 14.25 5 14.25H4.75V14C4.75 13.403 4.9862 12.8302 5.4082 12.4082C5.8302 11.9862 6.403 11.75 7 11.75H14.25V12C14.25 13.519 15.481 14.75 17 14.75H19C20.519 14.75 21.75 13.519 21.75 12V10C21.75 8.481 20.519 7.25 19 7.25H18.75V7C18.75 6.005 18.3553 5.05166 17.6523 4.34766C16.9483 3.64466 15.995 3.25 15 3.25H7.75V3C7.75 1.481 6.519 0.25 5 0.25H3Z" fill="white"/>
</svg>
