<svg width="14" height="16" viewBox="0 0 14 16" fill="none" xmlns="http://www.w3.org/2000/svg">
<path d="M10.3734 7.58842C8.96536 5.03415 5.22065 5.03415 3.80888 7.58842L0.868682 12.9221C0.268929 14.0134 1.07719 15.3334 2.33902 15.3334H11.3864C12.8568 15.3334 13.7962 13.7952 13.098 12.5288L10.3734 7.58842ZM10.2089 15.0474H3.61162C3.42888 15.0474 3.2827 14.9044 3.2827 14.7256C3.2827 14.5468 3.42888 14.4039 3.61162 14.4039H10.2089C10.3917 14.4039 10.5378 14.5468 10.5378 14.7256C10.5378 14.9007 10.3917 15.0474 10.2089 15.0474ZM3.3155 13.7915V10.0607C3.3155 9.88195 3.46168 9.73895 3.64442 9.73895H10.2089C10.3917 9.73895 10.5378 9.88195 10.5378 10.0607V13.7915C10.5378 13.9703 10.3917 14.1133 10.2089 14.1133H3.64442C3.46168 14.1133 3.3155 13.9703 3.3155 13.7915ZM8.91429 11.724V12.1388C8.91429 12.3712 8.72029 12.5609 8.48276 12.5609H7.62715V13.3763C7.62715 13.6196 7.42616 13.8163 7.17735 13.8163H6.79362C6.5448 13.8163 6.34378 13.6196 6.34378 13.3763V12.5609H5.48819C5.25064 12.5609 5.05665 12.3712 5.05665 12.1388V11.724C5.05665 11.4916 5.25064 11.3019 5.48819 11.3019H6.34378V10.4865C6.34378 10.2431 6.5448 10.0465 6.79362 10.0465H7.17782C7.42662 10.0465 7.62762 10.2431 7.62762 10.4865V11.3019H8.48322C8.72456 11.3019 8.91475 11.4916 8.91475 11.724H8.91429ZM9.73336 3.16002C9.73336 4.53731 8.59242 5.65335 7.18435 5.65335C5.77636 5.65335 4.63542 4.53731 4.63542 3.16002C4.63542 1.78273 5.77636 0.666687 7.18435 0.666687C8.59242 0.666687 9.73336 1.78273 9.73336 3.16002Z" fill="white"/>
</svg>
