<svg width="22" height="24" viewBox="0 0 22 24" fill="none" xmlns="http://www.w3.org/2000/svg">
<path d="M13.4 23.04C13.3146 23.04 13.2291 23.0174 13.1528 22.9713L8.3528 20.0914C8.20832 20.0049 8.12 19.8485 8.12 19.68V11.2301L0.570562 3.20927C0.486562 3.11999 0.440002 3.00239 0.440002 2.87999V1.43999C0.440002 1.17503 0.655042 0.959991 0.920002 0.959991H21.08C21.345 0.959991 21.56 1.17503 21.56 1.43999V2.87999C21.56 3.00239 21.5134 3.11999 21.4294 3.20927L13.88 11.2301V22.56C13.88 22.7328 13.7869 22.8926 13.6366 22.9776C13.5632 23.0194 13.4816 23.04 13.4 23.04Z" fill="white"/>
</svg>
