<svg width="140" height="174" viewBox="0 0 140 174" fill="none" xmlns="http://www.w3.org/2000/svg">
<path d="M25.475 0.511719C15.9606 0.511719 8.22501 8.24727 8.22501 17.7617C8.22501 27.2762 15.9606 35.0117 25.475 35.0117C34.9895 35.0117 42.725 27.2762 42.725 17.7617C42.725 8.24727 34.9895 0.511719 25.475 0.511719ZM111.725 0.511719C96.2539 0.511719 84.125 12.6406 84.125 28.1117C84.125 43.5828 96.2539 55.7117 111.725 55.7117C127.196 55.7117 139.325 43.5828 139.325 28.1117C139.325 12.6406 127.196 0.511719 111.725 0.511719ZM111.725 10.8617C113.639 10.8617 115.175 12.4115 115.175 14.3117V26.7102L121.105 32.532C122.452 33.8797 122.452 36.1437 121.105 37.4914C120.431 38.1652 119.514 38.4617 118.625 38.4617C117.736 38.4617 116.819 38.1652 116.145 37.4914L109.245 30.5914C108.598 29.9445 108.275 29.0281 108.275 28.1117V14.3117C108.275 12.4115 109.811 10.8617 111.725 10.8617ZM33.561 39.0008C32.7928 39.0008 32.0246 39.1086 31.2969 39.2164C26.4184 39.8229 22.052 42.4373 19.3297 46.4398C16.5805 50.4963 15.718 55.6039 16.9578 60.3477L27.3078 102.826C30.1244 113.688 39.7736 121.262 50.7031 121.262H81.3219L89.7313 163.309C90.742 168.861 95.7283 173.012 101.375 173.012C105.014 173.012 108.396 171.435 110.647 168.699C112.884 165.963 113.72 162.392 113.019 158.888L102.992 108.109C101.604 101.626 95.9844 97.1117 89.3 97.1117H61.2688L50.5953 52.8008C48.6008 44.8092 41.4313 39.0008 33.561 39.0008ZM3.26564 45.3617C2.29533 45.483 1.43283 46.0221 0.880289 46.8172C0.327751 47.6258 0.139077 48.6231 0.354702 49.5664L13.5078 105.413C13.5213 105.454 13.4944 105.494 13.5078 105.521C17.3352 122.879 32.5233 135.062 50.2719 135.062H73.775C75.0149 135.075 76.1738 134.428 76.8072 133.35C77.4272 132.272 77.4272 130.951 76.8072 129.873C76.1738 128.795 75.0149 128.148 73.775 128.162H50.2719C35.6229 128.162 23.3053 118.337 20.1922 104.012C20.1922 103.971 20.1922 103.944 20.1922 103.904L7.14689 48.057C6.76955 46.2781 5.0715 45.0922 3.26564 45.3617Z" fill="#DDDDDD"/>
</svg>
