<svg width="22" height="22" viewBox="0 0 22 22" fill="none" xmlns="http://www.w3.org/2000/svg">
<path d="M10.9999 0L0 9.53811H1.94497C2.18702 9.53811 2.39836 9.71088 2.39836 9.94617V19.3372H19.6016V9.94617C19.6016 9.71088 19.813 9.53811 20.055 9.53811H22L10.9999 0ZM9.78455 7.46113H12.2153C12.4573 7.46113 12.6436 7.61383 12.6436 7.84911V10.1772H15.0084C15.2505 10.1772 15.4378 10.3289 15.4378 10.5642V12.9269C15.4378 13.1622 15.2505 13.3725 15.0084 13.3725H12.6436V15.6421C12.6436 15.8773 12.4573 16.0886 12.2153 16.0886H9.78455C9.5425 16.0886 9.35631 15.8773 9.35631 15.6421V13.3725H6.99144C6.74939 13.3725 6.56213 13.1622 6.56213 12.9269V10.5642C6.56213 10.3289 6.74939 10.1772 6.99144 10.1772H9.35631V7.84911C9.35631 7.61383 9.54256 7.46113 9.78455 7.46113ZM10.2329 8.31323V10.5642C10.2329 10.7995 10.0266 11.0293 9.78455 11.0293H7.43874V12.5204H9.78455C10.0266 12.5204 10.2329 12.6917 10.2329 12.9269V15.2365H11.767V12.9269C11.767 12.6917 11.9733 12.5204 12.2153 12.5204H14.5612V11.0293H12.2153C11.9733 11.0293 11.767 10.7995 11.767 10.5642V8.31323H10.2329ZM2.39825 20.1893V22H19.6016V20.1893H2.39825Z" fill="#CCCCCC"/>
</svg>
