<svg width="22" height="22" viewBox="0 0 22 22" fill="none" xmlns="http://www.w3.org/2000/svg">
<path d="M9.07998 0.440002C4.57811 0.440002 0.919983 4.09813 0.919983 8.6C0.919983 13.1019 4.57811 16.76 9.07998 16.76C10.8612 16.76 12.5075 16.1863 13.85 15.215L20.165 21.515L21.515 20.165L15.275 13.91C16.5012 12.4813 17.24 10.6269 17.24 8.6C17.24 4.09813 13.5819 0.440002 9.07998 0.440002ZM9.07998 1.4C13.0625 1.4 16.28 4.6175 16.28 8.6C16.28 12.5825 13.0625 15.8 9.07998 15.8C5.09748 15.8 1.87998 12.5825 1.87998 8.6C1.87998 4.6175 5.09748 1.4 9.07998 1.4Z" fill="white"/>
</svg>
