<svg width="24" height="24" viewBox="0 0 24 24" fill="none" xmlns="http://www.w3.org/2000/svg">
<path d="M21.6 0.959991C21.0694 0.959991 20.64 1.38937 20.64 1.91999C20.64 2.06062 20.6756 2.18999 20.73 2.30999L16.89 7.67999C16.86 7.67812 16.83 7.67999 16.8 7.67999C16.6087 7.67999 16.425 7.73249 16.275 7.82999L12.96 6.17999C12.9281 5.67749 12.51 5.27999 12 5.27999C11.4694 5.27999 11.04 5.70937 11.04 6.23999C11.04 6.29062 11.0475 6.34124 11.055 6.38999L7.54498 9.17999C7.43811 9.13874 7.32186 9.11999 7.19998 9.11999C6.71998 9.11999 6.32623 9.47062 6.25498 9.92999L2.98498 11.25C2.82186 11.1225 2.62123 11.04 2.39998 11.04C1.86936 11.04 1.43998 11.4694 1.43998 12C1.43998 12.5306 1.86936 12.96 2.39998 12.96C2.88373 12.96 3.27936 12.6019 3.34498 12.135L6.61498 10.83C6.77811 10.9575 6.97873 11.04 7.19998 11.04C7.73061 11.04 8.15998 10.6106 8.15998 10.08C8.15998 10.0294 8.15248 9.97874 8.14498 9.92999L11.655 7.13999C11.7619 7.18124 11.8781 7.19999 12 7.19999C12.1912 7.19999 12.375 7.14749 12.525 7.04999L15.84 8.69999C15.8719 9.20249 16.29 9.59999 16.8 9.59999C17.3306 9.59999 17.76 9.17062 17.76 8.63999C17.76 8.49937 17.7244 8.36999 17.67 8.24999L21.51 2.87999C21.54 2.88187 21.57 2.87999 21.6 2.87999C22.1306 2.87999 22.56 2.45062 22.56 1.91999C22.56 1.38937 22.1306 0.959991 21.6 0.959991ZM19.68 7.19999V24H23.52V7.19999H19.68ZM10.08 11.52V24H13.92V11.52H10.08ZM14.88 13.92V24H18.72V13.92H14.88ZM5.27998 15.36V24H9.11998V15.36H5.27998ZM0.47998 17.28V24H4.31998V17.28H0.47998Z" fill="white"/>
</svg>
