<svg width="20" height="20" viewBox="0 0 20 20" fill="none" xmlns="http://www.w3.org/2000/svg">
<path d="M9.94874 0.868866C8.19874 0.868866 6.56828 1.36576 5.17856 2.21824V2.06141C5.17856 1.40458 4.64285 0.868866 3.98599 0.868866C3.32917 0.868866 2.79345 1.40458 2.79345 2.06141V4.46047L2.39594 4.85955C1.39283 6.32692 0.805878 8.10024 0.805878 10.0117C0.805878 15.0614 4.89902 19.1546 9.94874 19.1546C14.9984 19.1546 19.0916 15.0614 19.0916 10.0117C19.0916 4.96201 14.9984 0.868866 9.94874 0.868866ZM3.58849 9.61418C3.80742 9.61418 3.98599 9.79275 3.98599 10.0117C3.98599 10.2322 3.80742 10.4093 3.58849 10.4093C3.36954 10.4093 3.19097 10.2322 3.19097 10.0117C3.19097 9.79275 3.36954 9.61418 3.58849 9.61418ZM9.94874 18.3596C5.34628 18.3596 1.60091 14.6142 1.60091 10.0117C1.60091 8.68252 1.92079 7.35955 2.52793 6.18561L3.23445 6.55052C2.67855 7.62664 2.39594 8.79121 2.39594 10.0117C2.39594 14.1763 5.78416 17.5645 9.94874 17.5645C14.1133 17.5645 17.5015 14.1763 17.5015 10.0117C17.5015 5.84715 14.1133 2.45893 9.94874 2.45893C8.04811 2.45893 6.24068 3.17787 4.85559 4.44652H6.76862C6.98753 4.44652 7.16611 4.62509 7.16611 4.84401C7.16611 5.06298 6.98753 5.24155 6.76862 5.24155H3.58849V2.06141C3.58849 1.84247 3.76708 1.66389 3.98599 1.66389C4.20496 1.66389 4.38353 1.84247 4.38353 2.06141V3.80521C5.90679 2.43874 7.87731 1.66389 9.94874 1.66389C14.5512 1.66389 18.2966 5.40927 18.2966 10.0117C18.2966 14.6142 14.5512 18.3596 9.94874 18.3596ZM4.22976 12.8223C4.42079 12.7136 4.66302 12.7804 4.77171 12.9698C4.88039 13.1608 4.81519 13.403 4.62422 13.5117C4.43319 13.6204 4.19096 13.5552 4.08073 13.3642C3.97205 13.1732 4.03879 12.931 4.22976 12.8223ZM6.39439 15.3005C6.50616 15.1111 6.74845 15.0474 6.93788 15.1593C7.12731 15.2695 7.19096 15.5133 7.08074 15.7027C6.97045 15.8922 6.72668 15.9558 6.53725 15.8456C6.34782 15.7338 6.28416 15.49 6.39439 15.3005ZM9.98136 6.93098H10.8478V12.5319H9.97822V7.86578H9.91148L8.50616 8.85955V7.97132L9.98136 6.93098ZM9.55119 3.65148C9.55119 3.43253 9.72976 3.25396 9.94874 3.25396C10.1692 3.25396 10.3463 3.43253 10.3463 3.65148C10.3463 3.87041 10.1692 4.04898 9.94874 4.04898C9.72976 4.04898 9.55119 3.87041 9.55119 3.65148ZM10.3463 16.372C10.3463 16.5925 10.1692 16.7695 9.94874 16.7695C9.72976 16.7695 9.55119 16.5925 9.55119 16.372C9.55119 16.1515 9.72976 15.9745 9.94874 15.9745C10.1692 15.9745 10.3463 16.1515 10.3463 16.372ZM12.8882 15.1996C13.0792 15.0909 13.323 15.1577 13.4301 15.3487C13.5388 15.5397 13.472 15.7834 13.281 15.8906C13.09 15.9993 12.8463 15.9325 12.7391 15.7416C12.6304 15.5505 12.6972 15.3068 12.8882 15.1996ZM12.8167 4.32075C12.927 4.13127 13.1708 4.06761 13.3602 4.17789C13.5512 4.28967 13.6133 4.53344 13.5031 4.72292C13.3913 4.91235 13.149 4.97601 12.9596 4.86418C12.7702 4.75395 12.7065 4.51018 12.8167 4.32075ZM15.0963 13.0226C15.2065 12.8332 15.4503 12.7695 15.6397 12.8797C15.8292 12.99 15.8928 13.2338 15.781 13.4232C15.6708 13.6142 15.427 13.6763 15.2375 13.5661C15.0481 13.4543 14.9844 13.212 15.0963 13.0226ZM15.2732 6.51018C15.4643 6.40149 15.708 6.46824 15.8167 6.65927C15.9254 6.85024 15.8587 7.09247 15.6677 7.20115C15.4782 7.30984 15.2344 7.24309 15.1258 7.05367C15.0171 6.86264 15.0823 6.62041 15.2732 6.51018ZM15.9115 10.0117C15.9115 9.79275 16.0885 9.61418 16.309 9.61418C16.5295 9.61418 16.7065 9.79275 16.7065 10.0117C16.7065 10.2322 16.5295 10.4093 16.309 10.4093C16.0885 10.4093 15.9115 10.2322 15.9115 10.0117Z" fill="#777777"/>
</svg>
