<svg width="22" height="19" viewBox="0 0 22 19" fill="none" xmlns="http://www.w3.org/2000/svg">
<path d="M12.5 0C11.672 0 11 0.672 11 1.5V2H2C0.906937 2 0 2.90694 0 4V15C2.65169e-05 15.2652 0.105392 15.5195 0.292922 15.7071C0.480453 15.8946 0.734792 16 1 16H3C3 17.645 4.35499 19 6 19C7.64501 19 9 17.645 9 16H13C13 17.645 14.355 19 16 19C17.645 19 19 17.645 19 16H21C21.2652 16 21.5195 15.8946 21.7071 15.7071C21.8946 15.5195 22 15.2652 22 15V9C22 8.84475 21.9639 8.69162 21.8945 8.55273L19.1719 3.10742L19.1699 3.10547C18.8323 2.43058 18.1373 2 17.3828 2H14V1.5C14 0.672 13.328 0 12.5 0ZM15 4H17.3809L19.8809 9H16C15.448 9 15 8.552 15 8V4ZM7 5C7.552 5 8 5.448 8 6V7H9C9.552 7 10 7.448 10 8C10 8.552 9.552 9 9 9H8V10C8 10.552 7.552 11 7 11C6.448 11 6 10.552 6 10V9H5C4.448 9 4 8.552 4 8C4 7.448 4.448 7 5 7H6V6C6 5.448 6.448 5 7 5ZM6 15C6.56413 15 7 15.4359 7 16C7 16.5641 6.56413 17 6 17C5.43587 17 5 16.5641 5 16C5 15.4359 5.43587 15 6 15ZM16 15C16.5641 15 17 15.4359 17 16C17 16.5641 16.5641 17 16 17C15.4359 17 15 16.5641 15 16C15 15.4359 15.4359 15 16 15Z" fill="white"/>
</svg>
