<svg width="16" height="20" viewBox="0 0 16 20" fill="none" xmlns="http://www.w3.org/2000/svg">
<path d="M7.99999 0.399994C4.03317 0.399994 0.799988 3.63318 0.799988 7.59999V18C0.799988 18.8744 1.52554 19.6 2.39999 19.6H13.6C14.4744 19.6 15.2 18.8744 15.2 18V7.59999C15.2 3.73397 12.1125 0.616356 8.28436 0.457806C8.19389 0.421362 8.09751 0.401769 7.99999 0.399994ZM7.99999 1.99999C10.5451 1.99999 12.6798 3.68287 13.3656 5.99999H2.63436C3.32015 3.68287 5.45486 1.99999 7.99999 1.99999ZM5.59999 9.19999H10.4C10.8416 9.19999 11.2 9.55839 11.2 9.99999C11.2 10.4416 10.8416 10.8 10.4 10.8H5.59999C5.15839 10.8 4.79999 10.4416 4.79999 9.99999C4.79999 9.55839 5.15839 9.19999 5.59999 9.19999Z" fill="white"/>
</svg>
