<svg width="26" height="20" viewBox="0 0 26 20" fill="none" xmlns="http://www.w3.org/2000/svg">
<path opacity="0.8" d="M4.31572 8.69029C5.67624 8.69029 6.78239 7.50513 6.78239 6.04743C6.78239 4.58973 5.67624 3.40458 4.31572 3.40458C2.9552 3.40458 1.84906 4.58973 1.84906 6.04743C1.84906 7.50513 2.9552 8.69029 4.31572 8.69029ZM21.5824 8.69029C22.9429 8.69029 24.0491 7.50513 24.0491 6.04743C24.0491 4.58973 22.9429 3.40458 21.5824 3.40458C20.2219 3.40458 19.1157 4.58973 19.1157 6.04743C19.1157 7.50513 20.2219 8.69029 21.5824 8.69029ZM22.8157 10.0117H20.3491C19.6707 10.0117 19.0579 10.3049 18.6108 10.7798C20.1641 11.6924 21.2663 13.3401 21.5053 15.2974H24.0491C24.7312 15.2974 25.2824 14.7069 25.2824 13.976V12.6546C25.2824 11.1969 24.1762 10.0117 22.8157 10.0117ZM12.9491 10.0117C15.3348 10.0117 17.2657 7.94286 17.2657 5.38672C17.2657 2.83058 15.3348 0.761719 12.9491 0.761719C10.5633 0.761719 8.63239 2.83058 8.63239 5.38672C8.63239 7.94286 10.5633 10.0117 12.9491 10.0117ZM15.9091 11.3331H15.5892C14.7875 11.7461 13.8972 11.9939 12.9491 11.9939C12.0009 11.9939 11.1145 11.7461 10.309 11.3331H9.98906C7.53781 11.3331 5.54906 13.464 5.54906 16.0903V17.2796C5.54906 18.3739 6.3777 19.2617 7.39906 19.2617H18.4991C19.5204 19.2617 20.3491 18.3739 20.3491 17.2796V16.0903C20.3491 13.464 18.3603 11.3331 15.9091 11.3331ZM7.28728 10.7798C6.8402 10.3049 6.22739 10.0117 5.54906 10.0117H3.08239C1.72187 10.0117 0.615723 11.1969 0.615723 12.6546V13.976C0.615723 14.7069 1.16687 15.2974 1.84906 15.2974H4.38895C4.63176 13.3401 5.73406 11.6924 7.28728 10.7798Z" fill="#777777"/>
</svg>
