<svg width="14" height="12" viewBox="0 0 14 12" fill="none" xmlns="http://www.w3.org/2000/svg">
<path d="M7.87498 0.166672C7.39198 0.166672 6.99998 0.558672 6.99998 1.04167V1.33334H1.74998C1.11236 1.33334 0.583313 1.86239 0.583313 2.50001V8.91667C0.583328 9.07138 0.644792 9.21974 0.754184 9.32913C0.863577 9.43853 1.01194 9.49999 1.16665 9.5H2.33331C2.33331 10.4596 3.12372 11.25 4.08331 11.25C5.0429 11.25 5.83331 10.4596 5.83331 9.5H8.16665C8.16665 10.4596 8.95706 11.25 9.91665 11.25C10.8762 11.25 11.6666 10.4596 11.6666 9.5H12.8333C12.988 9.49999 13.1364 9.43853 13.2458 9.32913C13.3552 9.21974 13.4166 9.07138 13.4166 8.91667V5.41667C13.4167 5.32611 13.3956 5.23678 13.3551 5.15577L11.7669 1.97933L11.7658 1.9782C11.5688 1.58451 11.1634 1.33334 10.7233 1.33334H8.74998V1.04167C8.74998 0.558672 8.35798 0.166672 7.87498 0.166672ZM9.33331 2.50001H10.7221L12.1805 5.41667H9.91665C9.59465 5.41667 9.33331 5.15534 9.33331 4.83334V2.50001ZM4.66665 3.08334C4.98865 3.08334 5.24998 3.34467 5.24998 3.66667V4.25H5.83331C6.15531 4.25 6.41665 4.51134 6.41665 4.83334C6.41665 5.15534 6.15531 5.41667 5.83331 5.41667H5.24998V6C5.24998 6.322 4.98865 6.58334 4.66665 6.58334C4.34465 6.58334 4.08331 6.322 4.08331 6V5.41667H3.49998C3.17798 5.41667 2.91665 5.15534 2.91665 4.83334C2.91665 4.51134 3.17798 4.25 3.49998 4.25H4.08331V3.66667C4.08331 3.34467 4.34465 3.08334 4.66665 3.08334ZM4.08331 8.91667C4.41239 8.91667 4.66665 9.17093 4.66665 9.5C4.66665 9.82908 4.41239 10.0833 4.08331 10.0833C3.75424 10.0833 3.49998 9.82908 3.49998 9.5C3.49998 9.17093 3.75424 8.91667 4.08331 8.91667ZM9.91665 8.91667C10.2457 8.91667 10.5 9.17093 10.5 9.5C10.5 9.82908 10.2457 10.0833 9.91665 10.0833C9.58757 10.0833 9.33331 9.82908 9.33331 9.5C9.33331 9.17093 9.58757 8.91667 9.91665 8.91667Z" fill="#6A3D6A"/>
</svg>
